<?xml version="1.0" standalone="no"?>
<!DOCTYPE svg PUBLIC "-//W3C//DTD SVG 20010904//EN"
 "http://www.w3.org/TR/2001/REC-SVG-20010904/DTD/svg10.dtd">
<svg version="1.0" xmlns="http://www.w3.org/2000/svg"
 width="920.000000pt" height="920.000000pt" viewBox="0 0 920.000000 920.000000"
 preserveAspectRatio="xMidYMid meet">
<metadata>
Created by potrace 1.14, written by Peter Selinger 2001-2017
</metadata>
<g transform="translate(0.000000,920.000000) scale(0.100000,-0.100000)"
fill="#000000" stroke="none">
<path d="M1300 4600 l0 -4600 3300 0 3300 0 0 4600 0 4600 -3300 0 -3300 0 0
-4600z m601 4200 c41 -1 112 -1 159 -2 84 0 108 0 133 3 6 1 32 1 57 0 83 -3
228 -3 263 0 6 0 64 1 127 0 63 0 122 0 130 0 42 1 346 -1 415 -2 73 -2 90 -1
128 1 20 2 408 1 462 -1 28 0 68 -1 90 0 22 0 76 0 120 0 79 -1 103 -1 128 2
6 1 32 1 57 0 83 -3 228 -3 263 0 6 0 64 1 127 0 63 0 122 0 130 0 42 1 346
-1 415 -2 73 -2 90 -1 128 1 20 2 408 1 462 -1 28 0 68 -1 90 0 22 0 76 0 120
0 79 -1 103 -1 128 2 6 1 32 1 57 0 83 -3 228 -3 263 0 6 0 64 1 127 0 63 0
122 0 130 0 42 1 346 -1 415 -2 74 -2 94 -1 128 2 12 1 167 0 271 -1 33 -1 63
-3 68 -6 4 -3 8 -1893 8 -4200 l0 -4194 -22 -1 c-13 -1 -27 0 -33 1 -5 1 -30
1 -55 0 -25 -1 -49 -2 -55 -1 -5 0 -62 0 -125 1 -63 0 -160 0 -215 1 -55 0
-107 0 -115 0 -8 0 -44 0 -80 0 -36 1 -92 1 -125 0 -57 -1 -190 -1 -217 0 -7
0 -35 0 -63 0 -60 -1 -222 -1 -360 0 -55 0 -107 0 -115 0 -8 0 -44 0 -80 0
-36 1 -92 1 -125 0 -57 -1 -190 -1 -217 0 -7 0 -35 0 -63 0 -39 -1 -155 -2
-280 -2 -5 0 -37 1 -70 1 -33 0 -95 0 -137 1 -43 0 -84 0 -90 0 -7 0 -35 0
-63 0 -60 -1 -222 -1 -360 0 -55 0 -107 0 -115 0 -8 0 -44 0 -80 0 -36 1 -92
1 -125 0 -57 -1 -190 -1 -217 0 -7 0 -35 0 -63 0 -60 -1 -222 -1 -360 0 -55 0
-107 0 -115 0 -8 0 -44 0 -80 0 -36 1 -92 1 -125 0 -57 -1 -190 -1 -217 0 -7
0 -35 0 -63 0 -39 -1 -155 -2 -280 -2 -5 0 -37 1 -70 1 -33 0 -95 0 -137 1
-43 0 -84 0 -90 0 -7 0 -35 0 -63 0 -27 -1 -99 -1 -160 -1 -60 0 -137 0 -170
0 -33 -1 -93 0 -132 0 l-73 1 0 4199 0 4199 58 3 c31 2 60 2 63 1 4 -2 40 -3
80 -3z"/>
<path d="M2138 8402 l-38 -3 0 -3799 0 -3800 23 1 c12 0 88 0 170 0 81 0 154
0 162 0 8 0 80 0 160 0 80 0 151 0 158 0 6 0 62 0 122 -1 112 -1 251 -1 328
-1 23 0 78 0 122 0 94 -1 104 -1 130 1 19 2 188 1 350 -1 87 -2 100 -2 130 1
19 2 188 1 350 -1 86 -2 99 -2 130 1 11 1 70 2 130 1 61 0 118 0 128 0 9 0 82
0 162 0 80 0 152 0 160 0 8 0 80 0 160 0 80 0 151 0 158 0 6 0 62 0 122 -1
112 -1 251 -1 328 -1 23 0 78 0 122 0 94 -1 104 -1 130 1 19 2 188 1 350 -1
87 -2 100 -2 130 1 19 2 188 1 350 -1 44 -1 89 -1 100 -1 11 1 46 1 78 1 l57
0 0 1400 0 1399 -30 4 c-16 3 -35 1 -41 -3 -6 -4 -23 -4 -38 0 -14 5 -38 4
-53 0 -16 -4 -30 -3 -33 1 -3 5 -16 5 -29 0 -12 -4 -29 -4 -36 0 -8 5 -21 5
-30 0 -9 -5 -22 -5 -29 -1 -7 5 -29 5 -49 1 -21 -3 -49 -3 -64 1 -16 4 -30 3
-33 -1 -3 -5 -19 -5 -35 0 -17 5 -32 5 -35 0 -3 -6 -16 -5 -29 0 -13 5 -27 6
-30 3 -3 -4 -6 84 -6 195 l0 201 91 0 c50 0 94 3 97 6 3 2 11 0 18 -6 8 -7 14
-7 18 0 4 6 17 7 29 3 12 -4 38 -6 57 -5 19 2 58 3 85 3 28 0 56 -1 63 -1 6 1
23 0 37 0 30 0 63 1 88 2 16 0 17 55 17 997 l0 998 -22 2 c-13 2 -29 3 -35 3
-7 -1 -20 -1 -28 -1 -8 0 -22 0 -30 0 -8 0 -22 0 -30 0 -8 0 -22 0 -30 0 -8 0
-22 0 -30 0 -8 0 -22 0 -30 0 -8 0 -22 0 -30 0 -8 0 -22 0 -30 0 -8 0 -22 0
-30 0 -8 0 -22 0 -30 0 -8 0 -22 0 -30 0 -8 0 -22 0 -30 0 -8 0 -22 0 -30 0
-8 0 -22 0 -30 0 -8 0 -22 0 -30 0 -8 0 -22 0 -30 0 -8 0 -22 0 -30 0 -8 0
-22 0 -30 0 -8 0 -22 0 -30 0 -45 -1 -133 -1 -150 0 -11 1 -27 1 -35 1 -8 -1
-28 -1 -45 0 -16 0 -37 0 -45 -1 -8 0 -24 0 -35 0 -11 1 -27 1 -35 1 -8 -1
-28 -1 -45 0 -16 0 -37 0 -45 -1 -8 0 -24 0 -35 0 -11 1 -27 1 -35 1 -8 -1
-28 -1 -45 0 -16 0 -37 0 -45 -1 -8 0 -24 0 -35 0 -22 1 -20 1 -91 -1 -28 -1
-55 1 -60 4 -6 3 -16 2 -24 -3 -7 -4 -24 -4 -36 0 -14 6 -26 5 -29 0 -3 -5
-18 -5 -35 0 -17 5 -30 5 -30 0 0 -5 -13 -5 -30 0 -17 5 -30 5 -30 0 0 -5 -13
-5 -30 0 -17 5 -30 5 -30 0 0 -5 -13 -5 -30 0 -17 5 -30 5 -30 0 0 -5 -13 -5
-30 0 -17 5 -30 5 -30 0 0 -5 -13 -5 -30 0 -17 5 -30 5 -30 0 0 -5 -13 -5 -30
0 -17 5 -30 5 -30 0 0 -5 -13 -5 -30 0 -17 5 -30 5 -30 0 0 -5 -13 -5 -30 0
-17 5 -32 5 -35 0 -3 -5 -16 -6 -28 -1 -12 5 -31 5 -42 1 -11 -4 -24 -5 -30
-2 -5 4 -19 6 -30 7 -20 0 -20 7 -23 997 l-2 997 57 1 c71 2 83 2 182 0 44 -1
85 1 90 5 6 3 11 1 11 -5 0 -6 4 -9 9 -5 6 3 47 5 93 4 46 0 101 0 123 1 22 2
48 2 58 2 96 -4 178 -3 186 3 6 3 11 1 11 -5 0 -6 4 -9 9 -5 6 3 47 5 93 4 46
0 101 0 123 1 22 2 48 2 58 2 96 -4 178 -3 186 3 6 3 11 2 11 -2 0 -5 26 -6
58 -3 31 3 76 3 100 -1 23 -3 42 -2 42 1 0 4 17 4 37 1 20 -3 64 -4 97 -1 34
3 77 3 96 0 19 -3 49 -3 65 0 17 3 46 3 65 0 19 -3 62 -3 95 0 33 3 76 3 95 0
19 -3 61 -3 92 -2 l58 4 0 199 0 199 -32 1 c-18 0 -55 0 -83 0 -50 -1 -184 -1
-207 0 -7 0 -35 0 -63 0 -63 -1 -229 -1 -360 0 -55 0 -109 0 -120 -1 -26 -2
-26 -2 -120 -1 -44 0 -87 0 -95 0 -8 -1 -37 -1 -65 0 -27 0 -57 1 -65 0 -8 0
-69 0 -135 0 -66 0 -127 0 -135 0 -8 0 -76 0 -150 0 -74 1 -169 1 -210 1 -41
1 -79 1 -85 1 -5 0 -32 0 -60 0 -27 -1 -99 -1 -160 -1 -60 -1 -114 -1 -120 -1
-5 -1 -44 -1 -85 0 -41 0 -82 0 -90 0 -8 -1 -40 -1 -70 0 -87 1 -90 1 -90 -17
0 -9 0 -549 0 -1200 l0 -1183 -37 1 c-21 0 -47 0 -58 1 -11 0 -27 0 -35 0 -8
-1 -28 -1 -45 0 -16 0 -37 0 -45 -1 -8 0 -24 0 -35 0 -11 1 -27 1 -35 1 -8 -1
-28 -1 -45 0 -16 0 -37 0 -45 -1 -8 0 -24 0 -35 0 -11 1 -27 1 -35 1 -8 -1
-28 -1 -45 0 -16 0 -36 0 -42 0 -17 -1 -38 -1 -65 -1 -13 0 -36 -1 -53 -3 -16
-1 -42 1 -57 5 -16 3 -28 3 -28 -2 0 -5 -13 -5 -30 0 -16 5 -30 6 -30 2 0 -4
-16 -7 -35 -7 -19 0 -35 3 -35 7 0 4 -13 3 -30 -2 -17 -5 -30 -5 -30 0 0 5
-13 5 -30 0 -17 -5 -30 -5 -30 0 0 5 -13 5 -30 0 -17 -5 -30 -5 -30 0 0 5 -13
5 -30 0 -17 -5 -30 -5 -30 0 0 5 -13 5 -30 0 -17 -5 -30 -6 -30 -2 0 8 -68 7
-76 -1 -3 -3 -16 -2 -28 3 -13 4 -29 4 -36 0 -8 -5 -21 -5 -30 0 -9 5 -22 5
-30 0 -8 -5 -21 -5 -30 0 -9 5 -22 5 -30 0 -8 -5 -21 -5 -30 0 -9 5 -22 5 -30
0 -8 -5 -21 -5 -30 0 -9 5 -22 5 -30 0 -8 -5 -21 -5 -30 0 -9 5 -22 5 -30 0
-8 -5 -21 -5 -30 0 -9 5 -22 5 -30 0 -8 -5 -21 -5 -30 0 -9 5 -22 5 -30 0 -8
-5 -21 -5 -30 0 -9 5 -22 5 -30 0 -8 -5 -21 -5 -30 0 -9 5 -22 5 -30 0 -8 -5
-18 -6 -24 -3 -5 4 -33 5 -62 4 -29 -1 -55 2 -58 7 -3 6 -6 545 -6 1200 l0
1190 -51 4 c-27 1 -56 1 -65 -2 -8 -3 -44 -3 -79 0 -36 3 -65 2 -65 -1 0 -4
-15 -4 -32 0 -18 3 -50 5 -70 3z m569 -2806 c7 -3 13 -1 13 5 0 6 5 7 11 4 9
-6 56 -8 119 -4 8 0 26 0 40 0 14 -1 48 -1 77 0 29 0 57 -2 63 -6 5 -3 10 -1
10 5 0 6 5 8 11 5 9 -6 56 -8 119 -4 8 0 26 0 40 0 14 -1 48 -1 77 0 29 0 57
-2 63 -6 5 -3 10 -1 10 5 0 6 5 8 11 5 9 -6 56 -8 119 -4 8 0 26 0 40 0 14 -1
48 -1 77 0 29 0 57 -2 63 -6 5 -3 10 -1 10 5 0 6 5 8 11 5 6 -4 34 -7 62 -6
29 1 75 1 102 1 28 -1 57 -1 65 0 8 0 26 0 40 -1 14 0 39 0 55 0 91 3 125 2
135 -4 5 -3 10 -1 10 5 0 6 5 8 11 5 6 -4 34 -7 62 -6 29 1 75 1 102 1 28 -1
56 -1 63 0 6 0 18 0 25 1 6 0 27 -1 45 -2 l32 -2 0 -199 0 -200 -34 3 c-19 2
-38 1 -41 -3 -4 -3 -19 -2 -35 2 -16 4 -31 6 -34 3 -7 -8 -91 -7 -103 0 -5 3
-15 2 -23 -3 -8 -5 -21 -5 -30 0 -9 5 -22 5 -30 0 -7 -4 -24 -4 -36 0 -14 6
-26 5 -29 -1 -4 -5 -11 -7 -16 -3 -12 7 -138 9 -145 1 -3 -3 -18 -1 -34 3 -16
4 -31 6 -34 3 -7 -8 -84 -8 -92 0 -3 3 -17 2 -30 -3 -14 -6 -26 -6 -29 0 -3 6
-15 6 -30 0 -14 -5 -27 -5 -30 0 -3 5 -18 5 -33 1 -15 -4 -38 -5 -52 -1 -14 3
-44 3 -68 0 -23 -4 -45 -3 -48 1 -2 5 -16 4 -29 -1 -15 -6 -27 -6 -30 0 -3 6
-15 6 -30 0 -14 -5 -27 -5 -30 0 -3 5 -18 5 -33 1 -15 -4 -38 -5 -52 -1 -14 3
-44 3 -68 0 -23 -4 -45 -3 -48 1 -2 5 -16 4 -29 -1 -15 -6 -27 -6 -30 0 -3 6
-15 6 -30 0 -14 -5 -27 -5 -30 0 -3 4 -17 5 -33 1 -15 -4 -42 -4 -59 0 l-33 7
0 -610 c0 -447 3 -607 11 -602 14 9 103 9 117 0 6 -3 13 -2 17 3 3 6 16 7 28
3 12 -4 38 -6 57 -5 29 3 102 3 145 2 6 0 19 0 30 1 11 1 35 0 53 -3 17 -2 32
-2 32 2 0 8 105 5 118 -3 6 -3 13 -2 17 3 3 6 16 7 28 3 12 -4 38 -6 57 -5 29
3 102 3 145 2 6 0 19 0 30 1 11 1 35 0 53 -3 17 -2 32 -2 32 2 0 8 105 5 118
-3 6 -3 13 -2 17 3 3 6 16 7 28 3 12 -4 38 -6 57 -5 29 3 102 3 145 2 6 0 19
0 30 1 11 1 35 0 53 -3 17 -2 32 -2 32 2 0 5 110 6 118 0 1 -1 8 -2 15 -3 17
-1 23 -386 6 -397 -6 -4 -25 -3 -40 1 -17 5 -31 5 -35 -1 -3 -5 -10 -7 -15 -3
-13 7 -117 9 -125 2 -3 -4 -18 -2 -34 2 -16 4 -31 6 -34 3 -7 -8 -105 -7 -113
0 -3 4 -13 2 -22 -3 -10 -5 -23 -5 -31 0 -8 5 -21 5 -30 0 -9 -5 -22 -5 -30 0
-7 4 -23 5 -34 1 -12 -4 -34 -5 -51 -1 -16 3 -41 3 -55 0 -14 -4 -36 -4 -50 0
-14 4 -37 3 -52 -1 -15 -4 -30 -4 -33 1 -3 5 -15 6 -29 0 -12 -4 -29 -4 -36 0
-8 5 -21 5 -30 0 -9 -5 -22 -5 -29 -1 -7 5 -29 5 -49 1 -20 -3 -48 -3 -62 0
-14 4 -37 3 -52 -1 -15 -4 -30 -4 -33 1 -3 5 -15 6 -29 0 -12 -4 -29 -4 -36 0
-8 5 -21 5 -30 0 -9 -5 -22 -5 -28 -1 -7 4 -35 5 -62 1 -27 -4 -55 -3 -62 1
-6 4 -19 4 -28 -1 -9 -5 -22 -5 -30 0 -8 5 -21 5 -30 0 -9 -5 -22 -5 -30 0 -7
4 -23 4 -36 0 -12 -5 -24 -7 -27 -4 -7 7 -115 9 -122 2 -4 -3 -19 -2 -35 2
-16 4 -31 6 -34 3 -7 -7 -101 -7 -113 0 -5 3 -15 2 -23 -3 -7 -4 -24 -4 -36 0
-14 6 -26 5 -29 0 -3 -6 -15 -6 -29 0 -13 5 -27 6 -30 3 -3 -4 -6 445 -6 996
l0 1002 50 -2 c27 -2 52 0 54 2 6 6 84 2 103 -5z m2273 1 c43 6 119 5 130 -2
5 -3 10 -1 10 5 0 6 5 8 11 5 6 -4 34 -7 62 -6 29 1 75 1 102 1 50 -1 64 -1
88 1 6 0 23 0 37 -1 14 -1 50 -1 80 -1 30 0 62 0 70 0 8 0 44 0 80 0 36 0 73
0 83 0 60 0 89 0 105 1 9 0 28 0 42 -1 14 0 39 0 55 0 91 3 125 2 135 -4 5 -3
10 -1 10 5 0 6 5 8 11 5 6 -4 34 -7 62 -6 29 1 75 1 102 1 28 -1 57 -1 65 0 8
0 26 0 40 -1 14 0 39 0 55 0 91 3 125 2 135 -4 5 -3 10 -2 10 4 0 6 6 8 14 5
24 -9 80 -10 104 -2 l22 8 0 -604 -1 -604 -29 -4 c-16 -2 -35 -1 -42 3 -8 4
-20 4 -27 0 -7 -5 -28 -5 -47 -1 -19 4 -36 4 -39 0 -3 -5 -18 -5 -34 0 -16 4
-32 5 -36 2 -7 -7 -102 -5 -114 3 -5 3 -12 1 -15 -4 -4 -6 -18 -6 -36 -1 -16
5 -32 5 -35 0 -3 -5 -18 -5 -34 0 -15 4 -34 4 -42 0 -7 -5 -20 -5 -28 -1 -40
21 -41 15 -41 -401 l0 -400 -30 4 c-17 3 -33 1 -36 -3 -2 -4 -17 -4 -33 1 -16
4 -32 6 -35 3 -7 -7 -101 -7 -113 0 -5 3 -15 2 -23 -3 -7 -4 -24 -4 -36 0 -13
5 -26 6 -28 1 -7 -11 -54 -2 -62 11 -4 6 -6 42 -4 82 1 39 2 78 1 86 0 8 0 44
0 80 1 36 1 72 1 80 -1 8 -1 115 -1 236 l0 222 -25 4 c-14 3 -30 2 -36 -2 -7
-4 -27 -4 -46 0 -19 4 -36 4 -39 0 -3 -5 -18 -5 -34 0 -16 4 -32 5 -36 2 -7
-7 -101 -6 -113 2 -4 2 -14 1 -22 -4 -8 -5 -22 -5 -32 1 -17 9 -18 -8 -18
-395 0 -350 -2 -405 -15 -410 -8 -3 -15 -1 -15 3 0 5 -15 6 -32 2 -18 -4 -46
-4 -63 -1 -16 3 -47 3 -67 -1 -20 -3 -42 -3 -49 2 -7 4 -20 4 -29 -1 -9 -5
-22 -5 -30 0 -8 5 -21 5 -30 0 -9 -5 -22 -5 -30 0 -7 4 -19 6 -27 3 -11 -4
-14 28 -14 183 0 104 0 198 0 209 0 11 0 197 0 413 l1 393 47 0 c27 -1 71 0
100 0 29 0 57 -2 63 -6 5 -3 10 -1 10 5 0 6 5 8 11 4 14 -8 119 -11 119 -3 0
4 15 4 33 2 33 -5 37 -5 72 -3 11 0 45 1 75 1 30 -1 76 -1 102 0 26 0 52 -2
58 -6 5 -3 10 -1 10 5 0 6 5 8 11 5 6 -4 34 -7 62 -6 29 1 75 1 102 1 28 -1
56 -1 63 -1 6 0 23 1 37 1 14 0 32 0 40 0 8 0 26 0 40 0 14 0 32 0 40 0 8 0
26 0 40 0 32 0 52 0 68 1 6 0 28 0 47 0 19 0 42 0 50 0 8 0 20 0 25 -1 6 -1
25 -2 43 -1 l32 1 0 206 c0 144 -3 203 -11 199 -13 -9 -103 -10 -115 -2 -6 3
-16 2 -24 -3 -8 -5 -21 -5 -30 0 -9 5 -22 5 -30 0 -7 -4 -24 -4 -36 0 -14 6
-26 5 -29 -1 -4 -5 -11 -7 -16 -3 -12 7 -138 9 -145 1 -3 -3 -18 -2 -33 3 -16
4 -33 5 -40 1 -12 -8 -80 -5 -88 3 -3 2 -18 0 -34 -4 -16 -5 -29 -5 -29 0 0 4
-16 4 -35 0 -19 -4 -37 -4 -40 1 -3 4 -16 4 -29 -1 -13 -5 -26 -6 -30 -3 -7 7
-115 7 -122 0 -3 -3 -18 -1 -34 3 -16 4 -31 6 -34 3 -7 -8 -91 -7 -103 0 -5 3
-15 2 -23 -3 -8 -5 -21 -5 -30 0 -9 5 -22 5 -30 0 -7 -4 -24 -4 -36 0 -14 6
-26 5 -29 -1 -4 -5 -11 -6 -17 -3 -5 4 -41 6 -79 6 l-69 0 0 197 c0 109 3 200
6 204 3 3 16 2 28 -2 11 -4 32 -6 46 -4z m-1473 -801 c7 -3 13 -1 13 5 0 6 5
7 11 3 14 -8 119 -11 119 -3 0 4 15 4 33 2 17 -3 39 -4 47 -4 8 0 29 1 45 0
17 0 36 0 43 0 6 0 28 0 47 0 19 0 42 0 50 0 8 1 26 1 40 1 14 0 32 0 40 0 8
0 26 0 40 0 14 0 32 0 40 0 8 0 26 0 40 0 32 0 52 0 68 1 6 0 26 0 42 0 17 -1
38 -1 48 -1 9 0 28 0 42 0 14 0 32 0 40 0 8 0 26 0 40 0 14 0 32 0 40 0 8 0
26 0 40 -1 l25 -1 0 -195 c0 -191 0 -194 -22 -202 -13 -4 -35 -5 -50 0 -16 4
-28 5 -28 1 0 -4 -29 -7 -65 -7 -36 0 -65 3 -65 7 0 4 -13 3 -30 -2 -17 -5
-30 -5 -30 0 0 5 -13 5 -30 0 -17 -5 -30 -5 -30 0 0 5 -13 5 -30 0 -17 -5 -32
-5 -35 0 -3 5 -15 6 -29 0 -12 -4 -29 -4 -36 0 -8 5 -21 5 -30 0 -9 -5 -22 -5
-30 0 -8 5 -21 5 -31 0 -9 -5 -19 -7 -22 -4 -8 8 -106 9 -113 1 -3 -3 -19 -1
-35 3 -16 5 -31 5 -34 1 -2 -5 -23 -5 -45 -1 -22 4 -43 4 -45 -1 -3 -4 -18 -4
-34 1 -16 4 -32 5 -36 2 -7 -8 -102 -5 -115 3 -6 3 -10 2 -10 -4 0 -6 -11 -6
-30 -1 -17 5 -32 5 -35 0 -3 -5 -16 -6 -28 -1 -12 4 -28 6 -34 4 -10 -4 -13
40 -13 197 l0 201 50 -2 c27 -2 52 0 54 2 6 6 84 2 103 -5z m-879 -1597 c141
3 214 2 219 -2 2 -3 16 -2 31 2 15 4 39 4 55 0 15 -4 27 -4 27 1 0 4 15 5 33
1 18 -5 41 -5 52 -1 11 4 32 4 48 -1 15 -4 27 -4 27 1 0 4 15 5 33 1 17 -3 43
-5 57 -4 14 1 41 4 60 5 19 2 47 0 63 -3 16 -5 27 -4 27 2 0 6 5 7 11 3 6 -3
35 -6 65 -5 53 1 63 2 107 1 12 0 36 1 52 3 17 1 42 -1 58 -5 16 -4 27 -3 27
3 0 6 5 7 11 4 6 -4 32 -7 57 -6 26 0 83 1 127 0 118 0 166 1 200 4 17 1 42
-1 58 -5 16 -4 27 -3 27 3 0 6 5 7 11 4 6 -4 32 -7 57 -6 92 1 178 1 225 0
l47 -1 -2 -196 -3 -197 -32 -3 c-43 -3 -54 -3 -78 -2 -27 1 -87 1 -102 1 -7
-1 -19 -1 -25 -2 -7 0 -22 0 -33 1 -27 1 -87 1 -102 1 -7 -1 -19 -1 -25 -2 -7
0 -22 0 -33 1 -27 1 -87 1 -102 1 -17 -1 -38 -1 -65 -1 -13 0 -36 -1 -53 -3
-16 -1 -42 1 -57 5 -16 3 -28 3 -28 -2 0 -5 -13 -5 -30 0 -17 5 -30 5 -30 0 0
-5 -13 -5 -30 0 -17 5 -30 5 -30 0 0 -5 -13 -5 -30 0 -17 5 -30 5 -30 0 0 -5
-13 -5 -30 0 -17 5 -30 5 -30 0 0 -5 -13 -5 -30 0 -17 5 -30 5 -30 0 0 -5 -13
-5 -30 0 -17 5 -30 5 -30 0 0 -5 -13 -5 -30 0 -17 5 -30 5 -30 0 0 -5 -13 -5
-30 0 -17 5 -30 5 -30 0 0 -5 -13 -5 -30 0 -17 5 -30 5 -30 0 0 -5 -13 -5 -30
0 -17 5 -30 5 -30 0 0 -5 -13 -5 -30 0 -17 5 -30 5 -30 0 0 -5 -13 -5 -30 0
-17 5 -30 5 -30 0 0 -5 -13 -5 -30 0 -17 5 -30 5 -30 0 0 -5 -12 -5 -27 -1
-53 15 -53 15 -53 -201 l0 -200 25 4 c14 3 25 2 25 -1 0 -6 113 -4 143 3 9 2
17 1 17 -2 0 -4 33 -6 72 -4 81 3 94 3 188 2 36 0 87 0 113 0 27 0 53 -2 58
-5 5 -4 9 -3 9 2 0 4 24 7 52 5 29 -1 73 -2 98 -2 25 0 81 0 125 -1 44 0 87 0
95 1 8 0 26 0 40 -1 14 -1 41 -1 60 0 45 2 72 2 145 1 33 0 94 -1 135 0 41 0
103 0 138 0 l62 0 0 -199 0 -199 -45 -4 c-25 -2 -45 -1 -45 2 0 6 -129 3 -146
-4 -8 -3 -16 -1 -19 5 -4 5 -11 6 -17 3 -13 -9 -134 -8 -148 1 -5 3 -10 3 -10
-2 0 -4 -24 -7 -52 -5 -81 3 -170 3 -175 -2 -2 -2 -19 0 -37 4 -19 4 -39 4
-46 0 -7 -4 -27 -4 -46 0 -19 4 -34 4 -34 0 0 -4 -18 -4 -40 0 -22 4 -40 4
-40 0 0 -4 -18 -4 -40 0 -22 4 -40 4 -40 0 0 -4 -15 -4 -34 0 -19 4 -39 4 -46
0 -7 -4 -27 -4 -46 0 -19 4 -34 4 -34 0 0 -4 -18 -4 -40 0 -22 4 -40 4 -40 0
0 -4 -18 -4 -40 0 -22 4 -42 4 -45 0 -3 -4 -23 -4 -45 0 -22 4 -40 5 -40 1 0
-3 -21 -5 -47 -4 -49 2 -115 3 -145 2 -23 -1 -23 -6 -20 -216 l3 -183 42 1
c63 1 202 0 230 -2 6 0 46 0 87 0 41 0 84 0 95 -1 11 0 40 1 65 2 55 2 199 1
233 -1 6 0 46 0 87 0 41 0 84 0 95 -1 11 0 40 1 65 2 55 2 199 1 233 -1 6 0
46 0 87 0 41 0 84 0 95 -1 11 0 40 1 65 2 25 1 62 1 83 -1 l37 -2 0 -197 0
-197 -41 -1 c-22 -1 -45 -4 -50 -8 -5 -3 -9 -1 -9 4 0 5 -17 6 -40 2 -22 -4
-40 -4 -40 0 0 4 -18 4 -40 0 -22 -4 -40 -4 -40 0 0 4 -18 4 -40 0 -22 -4 -55
-4 -73 -1 -17 4 -49 4 -70 0 -20 -3 -39 -3 -42 1 -2 3 -27 4 -55 0 -27 -4 -50
-4 -50 0 0 3 -30 3 -66 0 -36 -3 -67 -3 -69 0 -2 4 -27 4 -55 0 -27 -4 -50 -3
-50 0 0 4 -19 4 -42 0 -24 -3 -58 -3 -75 1 -18 3 -51 3 -73 -1 -22 -4 -40 -4
-40 0 0 4 -18 4 -40 0 -22 -4 -40 -4 -40 0 0 4 -18 4 -40 0 -23 -4 -40 -3 -40
2 0 5 -5 6 -10 3 -6 -4 -56 -6 -110 -5 -55 0 -107 1 -115 1 -8 0 -31 0 -50 0
-19 0 -43 0 -52 -1 -78 -1 -127 1 -134 6 -5 3 -9 0 -9 -6 0 -6 -4 -9 -9 -5 -8
5 -35 5 -143 4 -10 0 -47 0 -83 1 l-65 1 -2 1000 -3 1000 22 -4 c12 -2 27 0
34 4 7 4 17 5 22 2 5 -3 30 -5 55 -4z m2279 -934 c0 -8 -4 -12 -9 -9 -5 3 -6
10 -3 15 9 13 12 11 12 -6z m1 -290 c-3 -3 -9 2 -12 12 -6 14 -5 15 5 6 7 -7
10 -15 7 -18z m0 -120 c-3 -3 -9 2 -12 12 -6 14 -5 15 5 6 7 -7 10 -15 7 -18z
m-1 -104 c0 -11 -5 -18 -9 -15 -4 3 -5 11 -1 19 7 21 12 19 10 -4z m1 -236
c-3 -3 -9 2 -12 12 -6 14 -5 15 5 6 7 -7 10 -15 7 -18z m0 -60 c-3 -3 -9 2
-12 12 -6 14 -5 15 5 6 7 -7 10 -15 7 -18z m2 -55 c0 -5 -2 -10 -4 -10 -3 0
-8 5 -11 10 -3 6 -1 10 4 10 6 0 11 -4 11 -10z m-2 -105 c-3 -3 -9 2 -12 12
-6 14 -5 15 5 6 7 -7 10 -15 7 -18z m0 -71 c0 -17 -3 -22 -8 -13 -5 6 -6 18
-3 26 8 19 11 16 11 -13z"/>
<path d="M2933 8402 l-33 -3 0 -1000 0 -999 28 -1 c40 -1 152 1 187 4 17 1 42
-1 58 -5 15 -3 27 -3 27 2 0 6 10 6 23 2 28 -10 71 -1 75 16 1 7 2 286 2 620
-1 744 0 955 3 959 4 3 89 5 225 4 9 0 52 0 95 -1 l77 0 0 -802 c0 -441 3
-798 6 -795 4 3 15 2 25 -3 12 -7 20 -7 24 0 4 6 11 8 16 4 5 -3 71 -5 147 -5
75 1 147 1 160 1 20 0 22 5 23 48 1 26 0 52 -1 57 -1 6 -1 39 0 75 1 36 2 72
1 80 0 8 0 44 0 80 1 36 1 72 1 80 -1 8 -1 188 0 400 0 212 0 392 -1 400 0 8
0 44 0 80 1 36 1 72 0 80 0 8 0 44 0 80 1 36 1 72 0 80 0 8 0 44 0 80 1 36 1
70 1 75 -1 6 -1 76 -2 158 l-1 147 -47 1 c-26 1 -51 0 -57 -1 -5 -1 -39 -1
-75 0 -36 1 -92 2 -125 1 -56 -1 -189 -1 -217 0 -7 0 -35 0 -63 0 -41 -1 -231
-2 -282 -2 -7 0 -43 0 -80 0 -130 0 -174 1 -181 4 -4 1 -22 1 -39 -1z"/>
<path d="M5356 7601 c-3 -5 -17 -6 -31 -3 l-25 4 0 -199 c0 -183 1 -200 18
-201 9 -1 44 -1 77 -1 33 0 66 0 73 0 21 -2 34 -2 112 -2 41 0 84 0 95 0 11 0
56 0 100 0 44 0 87 0 95 0 8 0 53 0 100 0 47 0 92 0 100 0 8 0 35 0 60 0 25 0
52 0 60 0 13 -1 122 -1 208 0 68 0 145 0 165 -1 12 0 46 1 75 2 28 2 54 1 57
-1 3 -4 8 -296 5 -380 0 -14 -25 -21 -75 -20 -25 1 -111 1 -125 0 -8 0 -44 0
-80 0 -36 1 -73 1 -82 1 -10 0 -29 0 -43 -1 -14 0 -35 0 -47 -1 -13 0 -36 0
-53 1 -16 1 -37 1 -45 1 -8 -1 -41 0 -73 2 -31 2 -57 -1 -57 -5 0 -5 -5 -5
-11 -2 -5 4 -38 6 -72 6 -34 -1 -70 -1 -79 -1 -27 0 -65 -1 -90 -1 -13 0 -36
0 -53 0 -16 1 -37 1 -45 1 -38 -1 -128 0 -160 1 -38 1 -118 1 -175 0 l-34 -1
0 -180 c0 -99 -2 -184 -5 -189 -9 -14 28 -41 43 -32 7 5 27 5 45 2 17 -4 42
-4 56 -1 14 4 37 3 51 -1 15 -4 32 -3 39 1 7 4 25 4 40 0 15 -4 33 -4 40 0 7
4 25 4 40 0 15 -4 33 -4 41 0 7 5 17 6 22 3 8 -5 224 -5 282 0 17 1 42 -1 58
-5 16 -4 27 -3 27 3 0 6 5 7 11 3 9 -5 45 -6 132 -3 22 1 192 0 217 -2 14 0
32 0 40 0 8 1 26 1 40 0 14 0 32 0 40 0 8 1 26 1 40 0 14 0 31 0 38 0 21 2 33
2 162 1 69 0 139 1 155 3 17 1 42 -1 57 -5 15 -3 30 -3 33 2 3 5 16 5 30 0
l25 -10 -2 603 -3 602 -40 2 c-22 0 -56 2 -75 3 -19 0 -63 1 -98 0 -34 -1 -66
2 -71 5 -5 3 -12 1 -15 -4 -3 -4 -23 -5 -43 -2 -21 4 -55 4 -76 0 -21 -3 -40
-3 -42 1 -2 4 -24 4 -47 1 -24 -4 -56 -4 -72 -1 -16 3 -70 3 -121 0 -51 -3
-105 -3 -121 0 -16 3 -46 3 -67 -1 -20 -3 -39 -3 -42 1 -2 4 -21 4 -42 1 -21
-4 -57 -4 -81 0 -23 3 -45 3 -47 -1 -3 -4 -22 -5 -42 -1 -21 3 -56 4 -78 1
-22 -3 -57 -2 -78 1 -21 4 -54 3 -73 -1 -19 -4 -36 -4 -39 0 -3 4 -21 4 -40 0
-19 -4 -37 -4 -40 0 -3 4 -21 4 -40 0 -19 -4 -37 -4 -40 0 -3 4 -20 5 -37 1
-33 -7 -92 -5 -115 4 -7 2 -15 0 -17 -4z"/>
</g>
</svg>
